<?xml version="1.0" encoding="utf-8"?>
<!-- Generator: Adobe Illustrator 19.0.0, SVG Export Plug-In . SVG Version: 6.00 Build 0)  -->
<svg version="1.1" id="layer" xmlns="http://www.w3.org/2000/svg" xmlns:xlink="http://www.w3.org/1999/xlink" x="0px" y="0px"
	 viewBox="-153 -46 652 652" style="enable-background:new -153 -46 652 652;" xml:space="preserve">
<style type="text/css">
	.st0{fill-rule:evenodd;clip-rule:evenodd;fill:#004388;}
	.st1{fill:#004388;}
	.st2{fill:#FFED00;}
</style>
<path id="XMLID_1_" class="st0" d="M232.2,345c8.7,0,8.7,0,8.7,0c12.8,0,22,3.5,22,13.9c0,9.9-9.9,13.3-20.9,13.3
	c-4.1,0-7.5,0-9.9,0 M232.2,306.2c1.7-0.6,5.2-0.6,11-0.6c11,0,17.4,3.5,17.4,11c0,7-6.4,11.6-20.3,11.6c-8.1,0-8.1,0-8.1,0V306.2z
	 M209,388.5c5.2,0.6,13.9,1.2,26.1,1.2c20.9,0,33.6-2.9,41.7-8.7c6.4-4.6,11.6-12.2,11.6-21.4c0-13.3-9.3-21.4-20.9-24.3
	c0-0.6,0-0.6,0-0.6c11.6-4.1,16.8-12.2,16.8-20.9c0-9.9-5.8-16.8-13.3-20.3c-7-3.5-15.7-5.2-30.7-5.2c-12.2,0-25.5,1.2-31.3,2.3
	V388.5z M322.6,345c8.7,0,8.7,0,8.7,0c13.3,0,22.6,3.5,22.6,13.9c0,9.9-9.9,13.3-21.4,13.3c-4.6,0-7.5,0-9.9,0 M322.6,306.2
	c1.7-0.6,5.2-0.6,11-0.6c11.6,0,18,3.5,18,11c0,7-6.4,11.6-20.9,11.6c-8.1,0-8.1,0-8.1,0V306.2z M298.9,388.5
	c5.2,0.6,14.5,1.2,26.7,1.2c21.4,0,34.2-2.9,42.3-8.7c6.4-4.6,11-12.2,11-21.4c0-13.3-9.3-21.4-20.3-24.3c0-0.6,0-0.6,0-0.6
	c11.6-4.1,16.8-12.2,16.8-20.9c0-9.9-5.8-16.8-13.3-20.3c-7.5-3.5-15.7-5.2-31.3-5.2c-12.2,0-25.5,1.2-31.9,2.3V388.5z M418.3,345
	c7-21.4,7-21.4,7-21.4c1.7-5.8,3.5-12.2,5.2-18c1.7,5.8,3.5,12.2,5.8,18c7,21.4,7,21.4,7,21.4 M447.3,362.4
	c8.7,26.1,8.7,26.1,8.7,26.1c26.1,0,26.1,0,26.1,0c-34.8-99.1-34.8-99.1-34.8-99.1c-31.9,0-31.9,0-31.9,0
	c-33.6,99.1-33.6,99.1-33.6,99.1c24.9,0,24.9,0,24.9,0c8.1-26.1,8.1-26.1,8.1-26.1H447.3z"/>
<path id="XMLID_5_" class="st1" d="M-68.1,138.7c201.7,0,201.7,0,201.7,0c27.8,0,51,22.6,51,50.4c0,200,0,200,0,200
	c0,27.2-23.2,49.9-51,49.9c-201.7,0-201.7,0-201.7,0c-27.8,0-49.9-22.6-49.9-49.9c0-200,0-200,0-200
	C-117.9,161.3-95.9,138.7-68.1,138.7"/>
<path id="XMLID_6_" class="st2" d="M-93,288.8h23.8v100.3H-93V288.8z M49.6,353.7c-1.7,0-3.5,0-4.6,0c-2.3,0-4.6,0-7,0.6
	c-9.9,1.2-15.7,5.2-15.7,11.6c0,6.4,4.6,9.9,11.6,9.9s12.8-4.6,15.1-9.9c0-0.6,0-1.2,0-1.2c0.6-0.6,0.6-1.7,0.6-2.9 M71,345
	c0,0,0,0,0,44.1c0,0,0,0-19.1,0c0,0,0,0-2.3-8.1c0,0,0,0-0.6,0c-5.2,6.4-13.3,9.9-24.3,9.9c-16.2,0-25.5-11.6-25.5-23.2
	c0-19.1,18.6-29,49.9-28.4c0,0,0,0,0-1.2c0-3.5-2.9-10.4-16.8-10.4c-8.7,0-18,2.9-23.2,6.4c0,0,0,0-4.6-15.1c5.8-3.5,16.8-7,31.9-7
	C62.3,312,71,326.5,71,345z M136,314.3c0,44.1,0,44.1,0,44.1c0,1.7-0.6,3.5-1.2,4.6c-1.7,4.1-6.4,9.3-13.9,9.3
	c-9.9,0-13.9-7-13.9-18.6c0-40,0-40,0-40c-22.6,0-22.6,0-22.6,0c0,44.6,0,44.6,0,44.6c0,5.8,0.6,9.9,1.7,13.9
	c1.7,4.6,3.5,8.1,5.8,10.4c2.9,2.9,5.8,4.6,9.3,5.8c3.5,1.2,7,2.3,11,2.3c4.1,0,7-0.6,9.9-1.7c2.9-0.6,5.2-1.7,7-2.9
	c2.3-1.2,4.1-2.9,5.2-4.1c1.2-1.7,2.3-2.9,3.5-4.1c2.9,11,2.9,11,2.9,11c18.6,0,18.6,0,18.6,0c0-74.8,0-74.8,0-74.8 M-47.8,288.8
	c0,24.9,0,24.9,0,24.9c-10.4,0-10.4,0-10.4,0c0,17.4,0,17.4,0,17.4c10.4,0,10.4,0,10.4,0c0,30.7,0,30.7,0,30.7c0,9.3,2.3,17.4,7,22
	c3.5,4.1,9.9,7,18,7c7,0,9.9-1.2,12.8-2.3c0-17.4,0-17.4,0-17.4c-0.6,0-2.3,0.6-4.6,0.6c-8.1,0-9.9-5.2-9.9-13.9
	c0-26.7,0-26.7,0-26.7c14.5,0,14.5,0,14.5,0c0-17.4,0-17.4,0-17.4c-14.5,0-14.5,0-14.5,0c0-24.9,0-24.9,0-24.9 M127.3,288.8
	l-14.5,20.3h16.8l19.7-20.3H127.3"/>
</svg>
